<?xml version="1.0" encoding="utf-8"?>
<!-- Generator: Adobe Illustrator 26.3.1, SVG Export Plug-In . SVG Version: 6.00 Build 0)  -->
<svg version="1.1" id="Layer_1" xmlns="http://www.w3.org/2000/svg" xmlns:xlink="http://www.w3.org/1999/xlink" x="0px" y="0px"
	 viewBox="0 0 34 34" style="enable-background:new 0 0 34 34;" xml:space="preserve">
<style type="text/css">
	.st0{opacity:0.5;fill:#005B62;}
	.st1{fill:none;stroke:#18233A;stroke-width:1.5;stroke-linecap:round;stroke-linejoin:round;stroke-miterlimit:10;}
</style>
<g>
	<path class="st0" d="M27,28H7c-2.2,0-4-1.8-4-4V10c0-2.2,1.8-4,4-4h20c2.2,0,4,1.8,4,4v14C31,26.2,29.2,28,27,28z"/>
	<path class="st1" d="M27,28H7c-2.2,0-4-1.8-4-4V10c0-2.2,1.8-4,4-4h20c2.2,0,4,1.8,4,4v14C31,26.2,29.2,28,27,28z"/>
	<path class="st1" d="M31,10l-12.9,9c-0.7,0.5-1.6,0.5-2.3,0L3,10"/>
</g>
</svg>
