<?xml version="1.0" encoding="utf-8"?>
<!-- Generator: Adobe Illustrator 26.3.1, SVG Export Plug-In . SVG Version: 6.00 Build 0)  -->
<svg version="1.1" id="Layer_1" xmlns="http://www.w3.org/2000/svg" xmlns:xlink="http://www.w3.org/1999/xlink" x="0px" y="0px"
	 viewBox="0 0 120 120" style="enable-background:new 0 0 120 120;" xml:space="preserve">
<style type="text/css">
	.st0{fill:url(#SVGID_1_);}
	.st1{fill:none;stroke:#FFFFFF;stroke-width:2;stroke-linecap:round;stroke-linejoin:round;stroke-miterlimit:10;}
</style>
<g>
	<linearGradient id="SVGID_1_" gradientUnits="userSpaceOnUse" x1="-31.354" y1="151.354" x2="69.8592" y2="50.1408">
		<stop  offset="0" style="stop-color:#FF7900"/>
		<stop  offset="1" style="stop-color:#FFC700"/>
	</linearGradient>
	<path class="st0" d="M100,5H20C11.7,5,5,11.7,5,20v80c0,8.3,6.7,15,15,15h80c8.3,0,15-6.7,15-15V20C115,11.7,108.3,5,100,5z"/>
	<circle class="st1" cx="60" cy="38.9" r="15.5"/>
	<path class="st1" d="M55.9,75.6H68c3.4,0,6.2-2.8,6.2-6.2v0c0-3.4-2.8-6.2-6.2-6.2H46.7L29.1,80.7L45,96.7l7.3-7.3l20.2-2.6
		l16.5-16.5c2.4-2.4,2.4-6.4,0-8.8l0,0c-2.4-2.4-6.4-2.4-8.8,0L74,67.8"/>
	<polyline class="st1" points="68.6,38.9 60,38.9 60,30.2 	"/>
	<polyline class="st1" points="51.4,38.9 60,38.9 60,47.5 	"/>
</g>
</svg>
