<?xml version="1.0" encoding="utf-8"?>
<!-- Generator: Adobe Illustrator 26.3.1, SVG Export Plug-In . SVG Version: 6.00 Build 0)  -->
<svg version="1.1" id="Layer_1" xmlns="http://www.w3.org/2000/svg" xmlns:xlink="http://www.w3.org/1999/xlink" x="0px" y="0px"
	 viewBox="0 0 90 62" style="enable-background:new 0 0 90 62;" xml:space="preserve">
<style type="text/css">
	.st0{fill:#005B62;}
</style>
<g>
	<path class="st0" d="M58.5,32.9l-28.4,8.8c-0.6,0.2-1,0.8-0.8,1.4c0.2,0.5,0.6,0.8,1.1,0.8c0.1,0,0.2,0,0.3-0.1l28.4-8.8
		c0.6-0.2,0.9-0.8,0.8-1.4C59.7,33,59.1,32.7,58.5,32.9z"/>
	<path class="st0" d="M18,35.4c0.1,0,0.2,0,0.3-0.1l5.3-1.6c0.6-0.2,0.9-0.8,0.8-1.4c-0.2-0.6-0.8-1-1.4-0.8l-5.3,1.6
		c-0.6,0.2-0.9,0.8-0.8,1.4C17.1,35.1,17.5,35.4,18,35.4z"/>
	<path class="st0" d="M60,5.9c0.6-0.2,0.9-0.8,0.7-1.5c-0.2-0.6-0.8-0.9-1.5-0.7L17.6,17.3c-0.6,0.2-0.9,0.8-0.7,1.5
		c0.2,0.5,0.6,0.8,1.1,0.8c0.1,0,0.2,0,0.4-0.1l13.2-4.3L20.1,59.6c-0.2,0.6,0.2,1.2,0.8,1.4c0.1,0,0.2,0,0.3,0c0.5,0,1-0.3,1.1-0.9
		l11.7-45.8L60,5.9z"/>
	<path class="st0" d="M85.5,18.8c-0.6-0.5-1.6-0.9-3.3-0.1c-3.9,1.7-6.7,1.5-8.2-0.5c-1-1.3-1.3-3.1-0.7-4.8
		c1.3-3.3,3.2-6.2,5.6-8.2c2-1.7,3.8-2.1,4.6-1.9c0.7,0.2,0.5,1.3,0.3,1.9c-1.7,6.2-6,8.9-6.1,8.9c-0.5,0.3-0.7,1-0.4,1.6
		c0.3,0.5,1,0.7,1.6,0.4c0.2-0.1,5.2-3.1,7.1-10.3c0.8-2.8-0.5-4.3-1.8-4.7c-1.8-0.6-4.3,0.3-6.7,2.3c-2.6,2.2-4.9,5.4-6.3,9.1
		c-0.9,2.4-0.5,5.1,1,7c0.3,0.4,0.7,0.8,1.1,1.1c-0.1,0.1-0.2,0.2-0.3,0.3c-1.7,2.8-3.7,4.5-6.1,5c-0.7,0.1-1.2,0.1-1.3-0.1
		c-0.7-0.9,0.8-5,2.6-8c0.3-0.5,0.2-1-0.2-1.4c-0.4-0.4-1-0.4-1.4-0.2c-2.3,1.4-3.8,2-4.8,2.4c-0.1-0.8-0.3-1.4-0.4-1.8
		c-0.3-0.7-0.8-1.1-1.5-1.1c-1,0-1.7,1-2,1.9c-0.4,1.2-0.1,2.3,0.7,3c0.3,0.3,0.7,0.4,1.2,0.5c0.1,2.3-0.2,5-1.1,6.6
		c-0.5,0.9-1.1,1-1.2,1.1c-2.7,0.4-3.4-1.6-3.5-2c0-0.2-0.1-0.3-0.2-0.4c1-3.5,1.3-7.1,1.3-7.7c0-0.6-0.4-1.2-1.1-1.2
		c-0.6,0-1.2,0.4-1.2,1.1c0,0-0.2,2.5-0.7,5.2c-0.7,3.4-1.7,5.8-2.9,6.7c-0.4,0.3-0.8,0.4-1.3,0.4c-0.4-0.1-0.7-0.2-0.9-0.6
		c-0.3-0.5-0.7-2.1,0.6-6.4c0.3-1,0.7-2,1-2.8c0.3-0.6,0.6-1.3,0.9-2c0.2-0.6-0.1-1.2-0.7-1.4c-0.6-0.2-1.2,0-1.5,0.6
		c0,0.1-0.4,0.8-0.8,1.9c-0.8,1.4-1.7,2.3-2.6,2.8c0-1.8-0.4-3-1.2-3.7c-0.7-0.6-1.5-0.8-2.4-0.5c-0.6,0.2-1.1,0.6-1.6,1.1
		c-1.5,0.3-5.1,1.8-6.5,9.3c-1,5,1,7.3,3,7.7c0.2,0.1,0.5,0.1,0.8,0.1c2.6,0,5.7-2.6,7.2-8.9c0.2-0.9,0.4-1.8,0.5-2.6
		c0.4-0.1,0.8-0.3,1.3-0.5c-0.7,2.9-0.7,5.1,0,6.5c0.5,1,1.4,1.6,2.6,1.8c1.1,0.2,2.1-0.1,3-0.9c0.8-0.7,1.5-1.7,2.1-2.9
		c0.7,0.9,1.9,1.9,3.9,1.9c0.4,0,0.8,0,1.2-0.1c0.8-0.1,2-0.6,2.9-2.2c1.2-2.1,1.5-5.3,1.4-7.9c0.8-0.2,1.6-0.5,2.6-1
		c-0.1,0.2-0.2,0.4-0.3,0.6c-1.3,3.2-1.5,5.3-0.5,6.6c0.5,0.7,1.6,1.4,3.7,1c3-0.6,5.6-2.8,7.6-6.1C75,22,75,21.9,75,21.7
		c1.9,0.7,4.4,0.6,8.1-0.9c0.6-0.3,0.9-0.2,1-0.2c0.1,0.1,0.3,0.6,0.1,1.8c-0.3,1.9-1.8,5.1-4.8,8.3c-2.3,2.5-6.4,5.8-12.6,7.9
		c0,0,0,0-0.1,0c0,0,0-0.1,0-0.1c0.1-1.6,1.2-4.9,7-10c0.5-0.4,0.5-1.1,0.1-1.6c-0.4-0.5-1.1-0.5-1.6-0.1c-6.1,5.3-7.6,9.2-7.8,11.5
		c-0.1,0.8,0.3,1.6,0.9,2.1c0.4,0.3,1,0.5,1.5,0.5c0.2,0,0.5,0,0.7-0.1c12.2-4,18.1-13.1,18.9-17.9C86.9,20.4,86.2,19.3,85.5,18.8z
		 M40.8,27.5c-0.8,3.2-1.9,5-2.8,5.9c-0.8,0.9-1.8,1.4-2.5,1.2c-1.4-0.3-1.6-2.8-1.2-5c0.8-4.1,2.2-6,3.3-6.8
		c0.2,1.3,1.3,2.4,2.9,2.8c0.2,0.1,0.4,0.1,0.6,0.1C41.1,26.2,41,26.8,40.8,27.5z M41.5,23.3c-0.1,0-0.2,0-0.4-0.1
		c-0.6-0.2-1.2-0.6-1.1-1c0.1-0.8,0.8-1.4,1.1-1.4c0,0,0,0,0,0C41.2,20.9,41.6,21.6,41.5,23.3z"/>
	<path class="st0" d="M17.4,36.5c-0.6-0.1-1.2,0.4-1.3,1c0,0.1-0.5,3.6-5.6,4.5c-1.7,0.3-3-0.7-3.8-1.9c0.1,0,0.2,0,0.3-0.1
		c7.6-2.9,9-6.4,9.2-8.1c0.2-1.6-0.6-3-1.9-3.9c-1.9-1.2-4.5-1-6.9,0.4C3.4,30.9,2.7,36,4.1,39.7c1.1,2.9,3.4,4.7,5.9,4.7
		c0.3,0,0.7,0,1-0.1c6.8-1.2,7.4-6.3,7.4-6.5C18.5,37.1,18.1,36.5,17.4,36.5z M6,38.1c-0.7-2.7,0-6,2.8-7.7c1-0.6,2-0.9,2.8-0.9
		c0.7,0,1.3,0.2,1.7,0.4c0.6,0.4,0.9,1,0.9,1.7c-0.2,2.5-4.2,4.8-7.7,6.2C6.2,37.9,6.1,38,6,38.1z"/>
</g>
</svg>
