<?xml version="1.0" encoding="utf-8"?>
<!-- Generator: Adobe Illustrator 26.3.1, SVG Export Plug-In . SVG Version: 6.00 Build 0)  -->
<svg version="1.1" id="Layer_1" xmlns="http://www.w3.org/2000/svg" xmlns:xlink="http://www.w3.org/1999/xlink" x="0px" y="0px"
	 viewBox="0 0 34 34" style="enable-background:new 0 0 34 34;" xml:space="preserve">
<style type="text/css">
	.st0{fill:none;stroke:#383838;stroke-width:1.5;stroke-linecap:round;stroke-linejoin:round;stroke-miterlimit:10;}
</style>
<g>
	<path class="st0" d="M11.4,3v4.6"/>
	<path class="st0" d="M4,18C4,8.3,7.2,5,17,5c9.7,0,13,3.2,13,13c0,9.7-3.2,13-13,13C7.3,31,4,27.8,4,18z"/>
	<path class="st0" d="M4.4,13.2h25.2"/>
	<path class="st0" d="M23.2,18.7L23.2,18.7"/>
	<path class="st0" d="M17,18.7L17,18.7"/>
	<path class="st0" d="M10.8,18.7L10.8,18.7"/>
	<path class="st0" d="M23.2,24.1L23.2,24.1"/>
	<path class="st0" d="M17,24.1L17,24.1"/>
	<path class="st0" d="M10.8,24.1L10.8,24.1"/>
	<path class="st0" d="M22.6,3v4.6"/>
</g>
</svg>
