<?xml version="1.0" encoding="utf-8"?>
<!-- Generator: Adobe Illustrator 26.3.1, SVG Export Plug-In . SVG Version: 6.00 Build 0)  -->
<svg version="1.1" id="Layer_1" xmlns="http://www.w3.org/2000/svg" xmlns:xlink="http://www.w3.org/1999/xlink" x="0px" y="0px"
	 viewBox="0 0 34 34" style="enable-background:new 0 0 34 34;" xml:space="preserve">
<style type="text/css">
	.st0{fill:none;stroke:#383838;stroke-width:1.5;stroke-linecap:round;stroke-linejoin:round;stroke-miterlimit:10;}
</style>
<g>
	<path class="st0" d="M17,13.3c2,0,3.7,1.6,3.7,3.7c0,2-1.6,3.7-3.7,3.7S13.3,19,13.3,17S15,13.3,17,13.3z"/>
	<path class="st0" d="M29,10c-1-1.8-3.2-2.4-5-1.3c-1.5,0.9-3.4-0.2-3.4-2C20.6,4.6,19,3,17,3s-3.6,1.6-3.6,3.7c0,1.8-1.9,2.9-3.4,2
		c-1.7-1-4-0.4-5,1.3c-1,1.8-0.4,4,1.3,5c1.5,0.9,1.5,3.1,0,4C4.6,20,4,22.2,5,24s3.2,2.4,5,1.3l0,0c1.5-0.9,3.4,0.2,3.4,2
		c0,2,1.6,3.7,3.6,3.7s3.6-1.6,3.6-3.7c0-1.8,1.9-2.9,3.4-2c1.7,1,4,0.4,5-1.3c1-1.8,0.4-4-1.3-5l0,0c-1.5-0.9-1.5-3.1,0-4
		C29.4,14,30,11.8,29,10z"/>
</g>
</svg>
