<?xml version="1.0" encoding="utf-8"?>
<!-- Generator: Adobe Illustrator 26.3.1, SVG Export Plug-In . SVG Version: 6.00 Build 0)  -->
<svg version="1.1" id="Layer_1" xmlns="http://www.w3.org/2000/svg" xmlns:xlink="http://www.w3.org/1999/xlink" x="0px" y="0px"
	 viewBox="0 0 34 34" style="enable-background:new 0 0 34 34;" xml:space="preserve">
<style type="text/css">
	.st0{fill:none;stroke:#383838;stroke-width:1.5;stroke-linecap:round;stroke-linejoin:round;stroke-miterlimit:10;}
</style>
<path class="st0" d="M31,19.9c0,0.8-0.3,1.5-0.8,2s-1.2,0.8-2,0.8h-2.3c-0.6,5.4-3.1,7.7-8.6,8.3v-2c0-0.8-0.3-1.5-0.8-2
	s-1.2-0.8-2-0.8c-1.6,0-2.8,1.3-2.8,2.8v2c-5.5-0.5-7.9-2.9-8.6-8.3h2c0.8,0,1.5-0.3,2-0.8s0.8-1.2,0.8-2c0-1.6-1.3-2.8-2.8-2.8H3
	c0.5-5.9,2.9-8.4,8.6-9V5.8c0-1.6,1.3-2.8,2.8-2.8c0.8,0,1.5,0.3,2,0.8s0.8,1.2,0.8,2v2.3c5.7,0.6,8.2,3.1,8.6,9H28
	C29.7,17.1,31,18.3,31,19.9z"/>
</svg>
