<?xml version="1.0" encoding="utf-8"?>
<!-- Generator: Adobe Illustrator 26.3.1, SVG Export Plug-In . SVG Version: 6.00 Build 0)  -->
<svg version="1.1" id="Layer_1" xmlns="http://www.w3.org/2000/svg" xmlns:xlink="http://www.w3.org/1999/xlink" x="0px" y="0px"
	 viewBox="0 0 34 34" style="enable-background:new 0 0 34 34;" xml:space="preserve">
<style type="text/css">
	.st0{opacity:0.5;fill:#005B62;}
	.st1{fill:none;stroke:#18233A;stroke-width:1.5;stroke-linecap:round;stroke-linejoin:round;stroke-miterlimit:10;}
</style>
<g>
	<path class="st0" d="M11.8,7c-0.2-2.2-2.1-4-4.4-4C5,3,3,5,3,7.4V27c0,2.2,1.8,4,4,4h20c2.2,0,4-1.8,4-4V11c0-2.2-1.8-4-4-4H11.8"
		/>
	<path class="st1" d="M11.8,7H27c2.2,0,4,1.8,4,4v16c0,2.2-1.8,4-4,4H7c-2.2,0-4-1.8-4-4V7.4"/>
	<path class="st1" d="M3,7.4C3,5,5,3,7.4,3s4.4,2,4.4,4.4"/>
	<path class="st1" d="M11.8,21.9c0,2.4-2,4.4-4.4,4.4S3,24.4,3,21.9"/>
	<line class="st1" x1="11.8" y1="7.4" x2="11.8" y2="21.9"/>
	<path class="st1" d="M31,11c0,2.2-1.8,4-4,4"/>
	<path class="st1" d="M25.2,15c-2.2,0-4-1.8-4-4"/>
	<line class="st1" x1="21.2" y1="11" x2="21.2" y2="7"/>
	<line class="st1" x1="27" y1="15" x2="25.2" y2="15"/>
	<line class="st1" x1="16.9" y1="18" x2="16.9" y2="18"/>
	<line class="st1" x1="21.4" y1="18" x2="21.4" y2="18"/>
	<line class="st1" x1="25.9" y1="18" x2="25.9" y2="18"/>
	<line class="st1" x1="16.9" y1="21.3" x2="16.9" y2="21.3"/>
	<line class="st1" x1="21.4" y1="21.3" x2="21.4" y2="21.3"/>
	<line class="st1" x1="25.9" y1="21.3" x2="25.9" y2="21.3"/>
	<line class="st1" x1="16.9" y1="24.7" x2="16.9" y2="24.7"/>
	<line class="st1" x1="21.4" y1="24.7" x2="21.4" y2="24.7"/>
	<line class="st1" x1="25.9" y1="24.7" x2="25.9" y2="24.7"/>
	<line class="st1" x1="16.9" y1="28" x2="16.9" y2="28"/>
	<line class="st1" x1="21.4" y1="28" x2="21.4" y2="28"/>
</g>
</svg>
