<?xml version="1.0" encoding="utf-8"?>
<!-- Generator: Adobe Illustrator 26.3.1, SVG Export Plug-In . SVG Version: 6.00 Build 0)  -->
<svg version="1.1" id="Layer_1" xmlns="http://www.w3.org/2000/svg" xmlns:xlink="http://www.w3.org/1999/xlink" x="0px" y="0px"
	 viewBox="0 0 34 34" style="enable-background:new 0 0 34 34;" xml:space="preserve">
<style type="text/css">
	.st0{opacity:0.5;fill:#005B62;}
	.st1{fill:none;stroke:#18233A;stroke-width:1.5;stroke-linecap:round;stroke-linejoin:round;stroke-miterlimit:10;}
</style>
<g>
	<path class="st0" d="M31,4.3V25c0,0.7-0.3,1.3-0.9,1.7l-5.5,3.6c-1.3,0.8-2.9,0.9-4.2,0.1l-5.7-3.2c-1.2-0.7-2.7-0.7-4,0l-6.3,3.6
		C3.8,31.2,3,30.7,3,30V9.2c0-0.7,0.4-1.4,1-1.7l6.8-3.9c1.2-0.7,2.7-0.7,4,0l5.7,3.2c1.3,0.8,2.9,0.7,4.2-0.1l4.8-3.2
		C30.1,3,31,3.5,31,4.3z"/>
	<g>
		<path class="st1" d="M3,9.2c0-0.7,0.4-1.4,1-1.7l6.8-3.9c1.2-0.7,2.7-0.7,4,0l5.7,3.2c1.3,0.8,2.9,0.7,4.2-0.1l4.8-3.2
			C30.1,3,31,3.5,31,4.3"/>
		<line class="st1" x1="12.8" y1="3" x2="12.8" y2="26.7"/>
		<line class="st1" x1="22.6" y1="7.3" x2="22.6" y2="31"/>
		<path class="st1" d="M31,4.3V25c0,0.7-0.3,1.3-0.9,1.7l-5.5,3.6c-1.3,0.8-2.9,0.9-4.2,0.1l-5.7-3.2c-1.2-0.7-2.7-0.7-4,0l-6.3,3.6
			C3.8,31.2,3,30.7,3,30V9.2"/>
	</g>
</g>
</svg>
