<?xml version="1.0" encoding="utf-8"?>
<!-- Generator: Adobe Illustrator 26.3.1, SVG Export Plug-In . SVG Version: 6.00 Build 0)  -->
<svg version="1.1" id="Layer_1" xmlns="http://www.w3.org/2000/svg" xmlns:xlink="http://www.w3.org/1999/xlink" x="0px" y="0px"
	 viewBox="0 0 34 34" style="enable-background:new 0 0 34 34;" xml:space="preserve">
<style type="text/css">
	.st0{opacity:0.5;fill:#005B62;}
	.st1{fill:none;stroke:#18233A;stroke-width:1.5;stroke-linecap:round;stroke-linejoin:round;stroke-miterlimit:10;}
</style>
<g>
	<path class="st0" d="M24,31H10V11.4c0-1.7,1.3-3,3-3H21c1.7,0,3,1.3,3,3V31z"/>
	<path class="st1" d="M24,31H10V11.4c0-1.7,1.3-3,3-3H21c1.7,0,3,1.3,3,3V31z"/>
	<path class="st1" d="M6.8,15.9C4.7,15.9,3,14.1,3,12V6.8C3,4.7,4.7,3,6.8,3h20.4C29.3,3,31,4.7,31,6.8V12c0,2.1-1.7,3.8-3.8,3.8"/>
	<circle class="st1" cx="17" cy="19.7" r="1.2"/>
</g>
</svg>
