<?xml version="1.0" encoding="utf-8"?>
<!-- Generator: Adobe Illustrator 26.3.1, SVG Export Plug-In . SVG Version: 6.00 Build 0)  -->
<svg version="1.1" id="Layer_1" xmlns="http://www.w3.org/2000/svg" xmlns:xlink="http://www.w3.org/1999/xlink" x="0px" y="0px"
	 viewBox="0 0 34 34" style="enable-background:new 0 0 34 34;" xml:space="preserve">
<style type="text/css">
	.st0{opacity:0.5;fill:#005B62;}
	.st1{fill:none;stroke:#18233A;stroke-width:1.5;stroke-linecap:round;stroke-linejoin:round;stroke-miterlimit:10;}
</style>
<g>
	<path class="st0" d="M28,31H6c-1.7,0-3-1.3-3-3V17h28v11C31,29.7,29.7,31,28,31z"/>
	<circle class="st1" cx="17" cy="10" r="1.2"/>
	<circle class="st1" cx="17" cy="24" r="1.2"/>
	<line class="st1" x1="3" y1="17" x2="31" y2="17"/>
	<path class="st1" d="M28,31H6c-1.7,0-3-1.3-3-3V6c0-1.7,1.3-3,3-3h22c1.7,0,3,1.3,3,3v22C31,29.7,29.7,31,28,31z"/>
</g>
</svg>
