<?xml version="1.0" encoding="utf-8"?>
<!-- Generator: Adobe Illustrator 26.3.1, SVG Export Plug-In . SVG Version: 6.00 Build 0)  -->
<svg version="1.1" id="Layer_1" xmlns="http://www.w3.org/2000/svg" xmlns:xlink="http://www.w3.org/1999/xlink" x="0px" y="0px"
	 viewBox="0 0 34 34" style="enable-background:new 0 0 34 34;" xml:space="preserve">
<style type="text/css">
	.st0{opacity:0.5;fill:#005B62;}
	.st1{fill:none;stroke:#18233A;stroke-width:1.5;stroke-linecap:round;stroke-linejoin:round;stroke-miterlimit:10;}
</style>
<g>
	<rect x="3" y="6.8" class="st0" width="14.5" height="14.5"/>
	<path class="st1" d="M28,25.2H6c-1.7,0-3-1.3-3-3V6c0-1.7,1.3-3,3-3h22c1.7,0,3,1.3,3,3v16.2C31,23.8,29.7,25.2,28,25.2z"/>
	<line class="st1" x1="3" y1="6.8" x2="31" y2="6.8"/>
	<line class="st1" x1="31" y1="21.4" x2="3" y2="21.4"/>
	<line class="st1" x1="20.9" y1="10.5" x2="28.2" y2="10.5"/>
	<line class="st1" x1="20.9" y1="13.7" x2="28.2" y2="13.7"/>
	<line class="st1" x1="20.9" y1="15.6" x2="28.2" y2="15.6"/>
	<line class="st1" x1="20.9" y1="17.4" x2="25.8" y2="17.4"/>
	<line class="st1" x1="17.5" y1="6.8" x2="17.5" y2="21.4"/>
	<line class="st1" x1="11.5" y1="31" x2="23.5" y2="31"/>
</g>
</svg>
